<svg id="Layer_2" height="512" viewBox="0 0 128 128" width="512" xmlns="http://www.w3.org/2000/svg" data-name="Layer 2"><path d="m111.258 70.066h14.992v29h-14.992z" fill="#5b6ea2"/><path d="m1.75 70.066h14.992v29h-14.992z" fill="#5b6ea2"/><path d="m100.258 70.066h-18.9a22.711 22.711 0 0 0 -2.858-2.859v-16.587h-29v16.587a22.711 22.711 0 0 0 -2.859 2.859h-18.9v29h18.9a22.613 22.613 0 0 0 34.718 0h18.9z" fill="#5b6ea2"/><g fill="#4a5983"><path d="m111.258 82.816h14.992v3.5h-14.992z"/><path d="m100.258 82.816h-26.133a1.75 1.75 0 0 0 0 3.5h26.133a1.75 1.75 0 1 0 0-3.5z"/><path d="m1.75 82.816h14.992v3.5h-14.992z"/><path d="m53.875 82.816h-26.133a1.75 1.75 0 0 0 0 3.5h26.133a1.75 1.75 0 0 0 0-3.5z"/><path d="m64 48.82a1.751 1.751 0 0 0 -1.75 1.75v23.871a1.75 1.75 0 0 0 3.5 0v-23.871a1.751 1.751 0 0 0 -1.75-1.75z"/></g><path d="m16.742 63.442h11v42.25h-11z" fill="#86dbd5"/><path d="m100.258 63.442h11v42.25h-11z" fill="#86dbd5"/><path d="m42.875 39.571h42.25v11h-42.25z" fill="#86dbd5"/><path d="m54.5 31.071h19v8.5h-19z" fill="#5b6ea2"/><rect fill="#f7d56b" height="10.258" rx="5.129" width="72.67" x="27.742" y="20.813"/><circle cx="64" cy="84.567" fill="#86dbd5" r="10.125"/></svg>